<?xml version="1.0" encoding="UTF-8" standalone="no"?>
<!-- License: PD. Made by flat-icon-design: http://flat-icon-design.com/ -->

<svg
   version="1.1"
   id="_x36_"
   viewBox="0 0 468 287"
   xml:space="preserve"
   sodipodi:docname="OTT-logo.svg"
   inkscape:version="1.2.2 (b0a8486, 2022-12-01)"
   inkscape:export-filename="OTT-logo.png"
   inkscape:export-xdpi="96"
   inkscape:export-ydpi="96"
   xmlns:inkscape="http://www.inkscape.org/namespaces/inkscape"
   xmlns:sodipodi="http://sodipodi.sourceforge.net/DTD/sodipodi-0.dtd"
   xmlns="http://www.w3.org/2000/svg"
   xmlns:svg="http://www.w3.org/2000/svg"><defs
   id="defs147"><rect
   x="219.36834"
   y="240.43352"
   width="122.03272"
   height="70.459369"
   id="rect921" />
	
</defs><sodipodi:namedview
   id="namedview145"
   pagecolor="#ffffff"
   bordercolor="#666666"
   borderopacity="1.0"
   inkscape:showpageshadow="2"
   inkscape:pageopacity="0.0"
   inkscape:pagecheckerboard="true"
   inkscape:deskcolor="#d1d1d1"
   showgrid="false"
   inkscape:zoom="1.8464594"
   inkscape:cx="116.16827"
   inkscape:cy="312.48995"
   inkscape:window-width="2178"
   inkscape:window-height="1358"
   inkscape:window-x="1074"
   inkscape:window-y="206"
   inkscape:window-maximized="0"
   inkscape:current-layer="_x36_" />
<g
   id="g140"
   transform="matrix(0.70735678,0.70595254,-0.70528946,0.70802181,227.57598,-218.55385)"
   style="stroke-width:1.00063">
		<path
   style="fill:#312d2a;fill-opacity:1;stroke-width:1.00063"
   d="M 494.352,173.811 501.174,161.756 350.244,10.826 231.173,78.185 4.676,304.682 c -6.209,6.209 -6.26,16.418 -0.001,22.677 l 179.967,179.967 c 6.259,6.259 16.468,6.207 22.676,-0.001 L 433.815,280.828 Z M 385.129,107.786 c 4.002,-2.668 9.131,-2.975 13.391,-0.975 1.026,0.41 2,1.078 2.872,1.847 0.411,0.205 0.718,0.513 1.078,0.872 1.693,1.693 2.823,3.642 3.386,5.848 1.231,3.796 0.667,8.054 -1.642,11.492 -0.41,0.718 -0.974,1.385 -1.589,2 -0.411,0.411 -0.923,0.82 -1.385,1.18 -0.051,0.051 -0.051,0.051 -0.103,0.103 -4.874,3.848 -11.748,3.848 -16.622,0.103 -0.051,-0.051 -0.205,-0.103 -0.256,-0.154 -0.308,-0.308 -0.719,-0.513 -1.078,-0.872 l -0.41,-0.411 c -0.256,-0.257 -0.513,-0.513 -0.667,-0.872 -0.359,-0.359 -0.616,-0.718 -0.872,-1.077 -0.923,-1.437 -1.59,-2.925 -1.949,-4.514 -0.872,-3.95 -0.051,-8.157 2.566,-11.492 0.051,-0.051 0.051,-0.051 0.103,-0.103 0.359,-0.462 0.769,-0.974 1.18,-1.385 0.612,-0.615 1.28,-1.18 1.997,-1.59 z"
   id="path132"
   inkscape:label="Bark" />
		<path
   style="fill:#4c825c;fill-opacity:1;stroke-width:1.00063"
   d="M 473.625,165.501 346.499,38.375 244.666,95.986 24.631,316.02 195.98,487.369 416.014,267.335 Z m -88.496,-57.715 c 4.002,-2.668 9.131,-2.975 13.391,-0.975 1.026,0.41 2,1.078 2.872,1.847 0.411,0.205 0.718,0.513 1.078,0.872 1.693,1.693 2.823,3.642 3.386,5.848 1.231,3.796 0.667,8.054 -1.642,11.492 -0.41,0.718 -0.974,1.385 -1.589,2 -0.411,0.411 -0.923,0.82 -1.385,1.18 -0.051,0.051 -0.051,0.051 -0.103,0.103 -4.874,3.848 -11.748,3.848 -16.622,0.103 -0.051,-0.051 -0.205,-0.103 -0.256,-0.154 -0.308,-0.308 -0.719,-0.513 -1.078,-0.872 l -0.41,-0.411 c -0.256,-0.257 -0.513,-0.513 -0.667,-0.872 -0.359,-0.359 -0.616,-0.718 -0.872,-1.077 -0.923,-1.437 -1.59,-2.925 -1.949,-4.514 -0.872,-3.95 -0.051,-8.157 2.566,-11.492 0.051,-0.051 0.051,-0.051 0.103,-0.103 0.359,-0.462 0.769,-0.974 1.18,-1.385 0.612,-0.615 1.28,-1.18 1.997,-1.59 z"
   id="path134"
   inkscape:label="Green" />
		
			<rect
   x="134.73599"
   y="141.69901"
   transform="matrix(0.7071,0.7071,-0.7071,0.7071,268.2372,-79.398)"
   style="fill:#e9e1ca;fill-opacity:1;stroke-width:1.00063"
   width="190.448"
   height="284.785"
   id="rect136"
   inkscape:label="White" />
		<path
   style="fill:#4d4c4c;stroke-width:1.00063"
   d="m 398.24691,131.97145 c -0.60377,0.25701 -1.21913,0.47054 -1.83549,0.633 5.79818,-3.49025 8.28567,-10.80243 5.55901,-17.20615 -2.72574,-6.40334 -9.7203,-9.67926 -16.2548,-7.92058 0.54435,-0.33162 1.12482,-0.62712 1.72859,-0.88413 7.00841,-2.9833 15.10697,0.27917 18.09027,7.28758 2.98368,7.00749 -0.27916,15.10698 -7.28758,18.09028 z"
   id="path138"
   inkscape:label="Shadow" />
	</g>
<g
   id="g2042"><g
     id="g616"
     style="display:inline;fill:#ff2a2a;stroke-width:3.17987"
     transform="matrix(0.3008036,0,0,0.32877387,55.890152,108.44767)"
     inkscape:label="OTT - paths"><title
       id="title612">Layer 1</title><path
       fill-rule="nonzero"
       fill="#ffffff"
       id="path676"
       d="M 270.84327,204.33692 H 140.81519 c -41.844153,0 -75.749808,-34.01351 -75.749808,-75.80195 0,-41.968573 33.905655,-75.803158 75.749808,-75.803158 h 130.02808 c 41.98656,0 75.85714,33.834585 75.85714,75.803158 0,41.78844 -33.87058,75.80195 -75.85714,75.80195 z M 274.07793,11.426579 H 137.93867 C 73.246562,11.426592 20.775368,63.861132 20.775368,128.62351 c 0,64.69317 52.471195,117.01851 117.163302,117.01851 h 136.13926 c 64.76385,0 116.9104,-52.32534 116.9104,-117.01851 0,-64.762378 -52.14655,-117.196918 -116.9104,-117.196918"
       style="display:none;fill:#312d2a;fill-opacity:1;stroke-width:10.252"
       inkscape:label="O shadow" /><path
       fill-rule="nonzero"
       fill="#ffffff"
       id="path12"
       d="M 260.86999,195.21211 H 130.84191 c -41.844158,0 -75.749813,-34.01351 -75.749813,-75.80195 0,-41.968576 33.905655,-75.803161 75.749813,-75.803161 h 130.02808 c 41.98656,0 75.85714,33.834585 75.85714,75.803161 0,41.78844 -33.87058,75.80195 -75.85714,75.80195 z M 264.10465,2.301766 H 127.96539 C 63.273277,2.3017793 10.802083,54.736319 10.802083,119.4987 c 0,64.69317 52.471195,117.01851 117.163307,117.01851 h 136.13926 c 64.76385,0 116.9104,-52.32534 116.9104,-117.01851 0,-64.762381 -52.14655,-117.1969207 -116.9104,-117.1969207"
       style="display:inline;fill:#c74634;fill-opacity:1;stroke-width:10.252"
       inkscape:label="O" /><g
       aria-label="TT"
       transform="scale(1.2405052,0.80612319)"
       id="text936"
       style="font-size:341.849px;line-height:1.25;font-family:'Helvetica Neue';-inkscape-font-specification:'Helvetica Neue';fill:#312d2a;stroke-width:10.1115"
       inkscape:label="TT shadow"><path
         d="m 432.34254,192.43182 q -9.22992,26.66422 -18.80169,51.27735 -9.57178,24.61312 -16.06691,37.26154 -6.15328,12.99026 -10.93916,17.77614 -4.78589,4.78589 -9.91363,6.49514 -4.78588,1.70924 -9.91362,1.36739 -4.78588,-0.34185 -9.91362,-0.6837 -28.71531,-4.44403 -17.77615,-41.36373 7.17883,-29.39901 11.62287,-47.85885 4.44404,-18.8017 7.17883,-30.76641 3.07664,-12.30657 5.12773,-20.1691 2.0511,-8.20437 4.44404,-16.0669 2.39294,-7.86253 5.81143,-17.77615 3.76034,-9.91362 9.57178,-26.32237 -12.99027,1.70925 -23.24574,-2.73479 -15.04135,-6.495133 -12.30656,-28.03162 1.3674,-9.91362 10.59732,-18.459845 4.78589,-4.444037 11.28102,-9.571772 13.33211,-10.597319 52.98659,-22.562034 41.02188,-12.306564 70.42089,-11.622866 7.86253,-1.367396 16.06691,2.051094 8.54622,3.076641 13.67396,8.546225 5.12773,5.469584 5.12773,11.964715 0.34185,6.495131 -8.20437,11.622866 -4.10219,2.734792 -5.81144,9.229923 -1.70924,6.153282 -3.76034,13.332111 -2.05109,6.836979 -6.15328,12.648412 -3.76034,5.811433 -12.30656,6.83698 -4.44404,2.392943 -12.64841,3.41849 -7.86253,1.025547 -10.59732,1.709245 -2.39295,0.341849 -2.7348,1.709245 -6.15328,18.118001 -14.6995,44.098521 -8.54623,25.63868 -18.118,52.64475 z m -46.14961,-90.58999 q -0.6837,0 -0.6837,0.34185 0,0 0.6837,0 z"
         style="font-family:Knewave;-inkscape-font-specification:'Knewave, Normal'"
         id="path937" /><path
         d="m 609.31016,192.43182 q -9.22992,26.66422 -18.8017,51.27735 -9.57177,24.61312 -16.0669,37.26154 -6.15328,12.99026 -10.93917,17.77614 -4.78588,4.78589 -9.91362,6.49514 -4.78588,1.70924 -9.91362,1.36739 -4.78588,-0.34185 -9.91362,-0.6837 -28.71532,-4.44403 -17.77615,-41.36373 7.17883,-29.39901 11.62287,-47.85885 4.44404,-18.8017 7.17883,-30.76641 3.07664,-12.30657 5.12773,-20.1691 2.0511,-8.20437 4.44404,-16.0669 2.39294,-7.86253 5.81143,-17.77615 3.76034,-9.91362 9.57177,-26.32237 -12.99026,1.70925 -23.24573,-2.73479 -15.04135,-6.495133 -12.30656,-28.03162 1.36739,-9.91362 10.59732,-18.459845 4.78588,-4.444037 11.28101,-9.571772 13.33212,-10.597319 52.9866,-22.562034 41.02188,-12.306564 70.42089,-11.622866 7.86253,-1.367396 16.06691,2.051094 8.54622,3.076641 13.67396,8.546225 5.12773,5.469584 5.12773,11.964715 0.34185,6.495131 -8.20437,11.622866 -4.10219,2.734792 -5.81144,9.229923 -1.70924,6.153282 -3.76034,13.332111 -2.05109,6.836979 -6.15328,12.648412 -3.76034,5.811433 -12.30656,6.83698 -4.44404,2.392943 -12.64842,3.41849 -7.86252,1.025547 -10.59731,1.709245 -2.39295,0.341849 -2.7348,1.709245 -6.15328,18.118001 -14.6995,44.098521 -8.54623,25.63868 -18.118,52.64475 z m -46.14962,-90.58999 q -0.68369,0 -0.68369,0.34185 0,0 0.68369,0 z"
         style="font-family:Knewave;-inkscape-font-specification:'Knewave, Normal'"
         id="path939" /></g><g
       aria-label="TT"
       transform="scale(1.2405052,0.80612319)"
       id="text482"
       style="font-size:341.849px;line-height:1.25;font-family:'Helvetica Neue';-inkscape-font-specification:'Helvetica Neue';fill:#c74634;stroke-width:10.1115"
       inkscape:label="TT"><path
         d="m 424.30284,181.11245 q -9.22993,26.66422 -18.8017,51.27735 -9.57177,24.61313 -16.0669,37.26154 -6.15328,12.99026 -10.93917,17.77615 -4.78588,4.78588 -9.91362,6.49513 -4.78589,1.70924 -9.91362,1.3674 -4.78589,-0.34185 -9.91362,-0.6837 -28.71532,-4.44404 -17.77615,-41.36373 7.17883,-29.39902 11.62287,-47.85886 4.44403,-18.8017 7.17883,-30.76641 3.07664,-12.30657 5.12773,-20.16909 2.05109,-8.20438 4.44404,-16.06691 2.39294,-7.86252 5.81143,-17.77614 3.76034,-9.91362 9.57177,-26.322376 -12.99026,1.709245 -23.24573,-2.734792 -15.04136,-6.495131 -12.30656,-28.031618 1.36739,-9.913621 10.59732,-18.459846 4.78588,-4.444037 11.28101,-9.571772 13.33211,-10.597319 52.9866,-22.562034 41.02188,-12.30656378 70.42089,-11.6228658 7.86253,-1.36739598 16.0669,2.051094 8.54623,3.076641 13.67396,8.5462248 5.12774,5.469584 5.12774,11.964715 0.34185,6.495131 -8.20438,11.622866 -4.10218,2.734792 -5.81143,9.229923 -1.70924,6.153282 -3.76034,13.332111 -2.05109,6.83698 -6.15328,12.648413 -3.76034,5.811433 -12.30656,6.83698 -4.44404,2.392943 -12.64842,3.41849 -7.86252,1.025547 -10.59732,1.709245 -2.39294,0.341849 -2.73479,1.709245 -6.15328,18.117997 -14.69951,44.098517 -8.54622,25.63868 -18.11799,52.64475 z M 378.15322,90.522465 q -0.6837,0 -0.6837,0.341849 0,0 0.6837,0 z"
         style="font-family:Knewave;-inkscape-font-specification:'Knewave, Normal'"
         id="path942" /><path
         d="m 601.27046,181.11245 q -9.22993,26.66422 -18.8017,51.27735 -9.57177,24.61313 -16.0669,37.26154 -6.15328,12.99026 -10.93917,17.77615 -4.78589,4.78588 -9.91362,6.49513 -4.78589,1.70924 -9.91362,1.3674 -4.78589,-0.34185 -9.91362,-0.6837 -28.71532,-4.44404 -17.77615,-41.36373 7.17883,-29.39902 11.62287,-47.85886 4.44403,-18.8017 7.17882,-30.76641 3.07665,-12.30657 5.12774,-20.16909 2.05109,-8.20438 4.44404,-16.06691 2.39294,-7.86252 5.81143,-17.77614 3.76034,-9.91362 9.57177,-26.322376 -12.99026,1.709245 -23.24573,-2.734792 -15.04136,-6.495131 -12.30656,-28.031618 1.36739,-9.913621 10.59731,-18.459846 4.78589,-4.444037 11.28102,-9.571772 13.33211,-10.597319 52.9866,-22.562034 41.02188,-12.30656378 70.42089,-11.6228658 7.86253,-1.36739598 16.0669,2.051094 8.54623,3.076641 13.67396,8.5462248 5.12774,5.469584 5.12774,11.964715 0.34185,6.495131 -8.20438,11.622866 -4.10219,2.734792 -5.81143,9.229923 -1.70925,6.153282 -3.76034,13.332111 -2.05109,6.83698 -6.15328,12.648413 -3.76034,5.811433 -12.30657,6.83698 -4.44403,2.392943 -12.64841,3.41849 -7.86253,1.025547 -10.59732,1.709245 -2.39294,0.341849 -2.73479,1.709245 -6.15328,18.117997 -14.69951,44.098517 -8.54622,25.63868 -18.11799,52.64475 z M 555.12084,90.522465 q -0.6837,0 -0.6837,0.341849 0,0 0.6837,0 z"
         style="font-family:Knewave;-inkscape-font-specification:'Knewave, Normal'"
         id="path944" /></g></g></g><g
   id="g2051"><g
     id="g920"
     style="display:none;fill:#ff2a2a;stroke-width:3.17987"
     transform="matrix(0.3008036,0,0,0.32877387,55.890152,108.44767)"
     inkscape:label="OTT - original text"><title
       id="title908">Layer 1</title><path
       fill-rule="nonzero"
       fill="#ffffff"
       id="path910"
       d="M 250.06739,195.21211 H 120.03931 c -41.844162,0 -75.749817,-34.01351 -75.749817,-75.80195 0,-41.968576 33.905655,-75.803161 75.749817,-75.803161 h 130.02808 c 41.98656,0 75.85714,33.834585 75.85714,75.803161 0,41.78844 -33.87058,75.80195 -75.85714,75.80195 z M 253.30205,2.301766 H 117.16279 C 52.470673,2.3017793 -5.2133207e-4,54.736319 -5.2133207e-4,119.4987 c 0,64.69317 52.47119533207,117.01851 117.16331133207,117.01851 h 136.13926 c 64.76385,0 116.9104,-52.32534 116.9104,-117.01851 0,-64.762381 -52.14655,-117.1969207 -116.9104,-117.1969207"
       style="display:inline;fill:#c74634;fill-opacity:1;stroke-width:10.252"
       inkscape:label="O" /><text
       xml:space="preserve"
       style="font-size:341.849px;line-height:1.25;font-family:'Helvetica Neue';-inkscape-font-specification:'Helvetica Neue';fill:#312d2a;fill-opacity:1;stroke-width:10.1115"
       x="313.37909"
       y="279.94516"
       id="text914"
       transform="scale(1.2405052,0.80612319)"
       inkscape:label="TT shadow"><tspan
         sodipodi:role="line"
         id="tspan912"
         x="313.37909"
         y="279.94516"
         style="font-style:normal;font-variant:normal;font-weight:normal;font-stretch:normal;font-size:341.849px;font-family:Knewave;-inkscape-font-specification:'Knewave, Normal';font-variant-ligatures:normal;font-variant-caps:normal;font-variant-numeric:normal;font-variant-east-asian:normal;fill:#312d2a;fill-opacity:1;stroke-width:10.1115">TT</tspan></text><text
       xml:space="preserve"
       style="font-size:341.849px;line-height:1.25;font-family:'Helvetica Neue';-inkscape-font-specification:'Helvetica Neue';fill:#c74634;fill-opacity:1;stroke-width:10.1115"
       x="305.33939"
       y="268.62579"
       id="text918"
       transform="scale(1.2405052,0.80612319)"
       inkscape:label="TT"><tspan
         sodipodi:role="line"
         id="tspan916"
         x="305.33939"
         y="268.62579"
         style="font-style:normal;font-variant:normal;font-weight:normal;font-stretch:normal;font-size:341.849px;font-family:Knewave;-inkscape-font-specification:'Knewave, Normal';font-variant-ligatures:normal;font-variant-caps:normal;font-variant-numeric:normal;font-variant-east-asian:normal;fill:#c74634;fill-opacity:1;stroke-width:10.1115">TT</tspan></text></g></g></svg>
